<svg xmlns="http://www.w3.org/2000/svg" version="1.0" viewBox="0 0 1024 1024"><path fill-opacity=".2" d="M578 443.4c0 .2.8 1 1.8 1.7 1.5 1.3 1.6 1.2.3-.4s-2.1-2.1-2.1-1.3m32.9 1.3c-1.3 1.6-1.2 1.7.4.4.9-.7 1.7-1.5 1.7-1.7 0-.8-.8-.3-2.1 1.3"/><path fill-opacity=".4" d="M713.3 341.5c0 2.7.2 3.8.4 2.2.2-1.5.2-3.7 0-5-.2-1.2-.4 0-.4 2.8"/><path fill-opacity=".7" d="M303 745.3c0 .2 1.5 1.6 3.3 3.3l3.2 2.9-2.9-3.3c-2.8-3-3.6-3.7-3.6-2.9m247.4 2.9-2.9 3.3 3.3-2.9c1.7-1.7 3.2-3.1 3.2-3.3 0-.8-.8-.1-3.6 2.9"/><path fill-opacity=".8" d="m327.4 523.2-1.9 2.3 2.3-1.9c1.2-1.1 2.2-2.1 2.2-2.3 0-.8-.8-.2-2.6 1.9m201.1-.2c1 1.1 2 2 2.3 2s-.3-.9-1.3-2-2-2-2.3-2 .3.9 1.3 2"/><path fill-opacity=".9" d="M689.8 316.7c.6.2 1.8.2 2.5 0 .6-.3.1-.5-1.3-.5s-1.9.2-1.2.5m-69.4 36.5-1.9 2.3 2.3-1.9c2.1-1.8 2.7-2.6 1.9-2.6-.2 0-1.2 1-2.3 2.2m140.1-.2c1 1.1 2 2 2.3 2s-.3-.9-1.3-2-2-2-2.3-2 .3.9 1.3 2m-146.3 15.5c0 1.6.2 2.2.5 1.2.2-.9.2-2.3 0-3-.3-.6-.5.1-.5 1.8m152.9.1c0 1.1.3 1.4.6.6.3-.7.2-1.6-.1-1.9-.3-.4-.6.2-.5 1.3M620.5 384c1 1.1 2 2 2.3 2s-.3-.9-1.3-2-2-2-2.3-2 .3.9 1.3 2m139.9.2-1.9 2.3 2.3-1.9c2.1-1.8 2.7-2.6 1.9-2.6-.2 0-1.2 1-2.3 2.2M458.2 428c0 1.4.2 1.9.5 1.2.2-.6.2-1.8 0-2.5-.3-.6-.5-.1-.5 1.3m158.9.6c0 1.1.3 1.4.6.6.3-.7.2-1.6-.1-1.9-.3-.4-.6.2-.5 1.3M464.5 444c1 1.1 2 2 2.3 2s-.3-.9-1.3-2-2-2-2.3-2 .3.9 1.3 2m30.9.2-1.9 2.3 2.3-1.9c2.1-1.8 2.7-2.6 1.9-2.6-.2 0-1.2 1-2.3 2.2m84.1-.2c1 1.1 2 2 2.3 2s-.3-.9-1.3-2-2-2-2.3-2 .3.9 1.3 2m30.9.2-1.9 2.3 2.3-1.9c2.1-1.8 2.7-2.6 1.9-2.6-.2 0-1.2 1-2.3 2.2m-130.6 6.5c.7.3 1.6.2 1.9-.1.4-.3-.2-.6-1.3-.5-1.1 0-1.4.3-.6.6m115 0c.6.2 1.8.2 2.5 0 .6-.3.1-.5-1.3-.5s-1.9.2-1.2.5m25.6 22.5-1.9 2.3 2.3-1.9c2.1-1.8 2.7-2.6 1.9-2.6-.2 0-1.2 1-2.3 2.2m140.1-.2c1 1.1 2 2 2.3 2s-.3-.9-1.3-2-2-2-2.3-2 .3.9 1.3 2m-336.7 8.7c.6.2 1.8.2 2.5 0 .6-.3.1-.5-1.3-.5s-1.9.2-1.2.5m7 0c.6.2 1.8.2 2.5 0 .6-.3.1-.5-1.3-.5s-1.9.2-1.2.5m258.8 2.1c-.2.4.4.8 1.4.8s1.6-.4 1.4-.8c-.3-.4-.9-.8-1.4-.8s-1.1.4-1.4.8m-427.2 4.4-1.9 2.3 2.3-1.9c2.1-1.8 2.7-2.6 1.9-2.6-.2 0-1.2 1-2.3 2.2m31.1-.2c1 1.1 2 2 2.3 2s-.3-.9-1.3-2-2-2-2.3-2 .3.9 1.3 2m268.9.2-1.9 2.3 2.3-1.9c2.1-1.8 2.7-2.6 1.9-2.6-.2 0-1.2 1-2.3 2.2m31.1-.2c1 1.1 2 2 2.3 2s-.3-.9-1.3-2-2-2-2.3-2 .3.9 1.3 2m20.7 0c0 1.4.2 1.9.5 1.2.2-.6.2-1.8 0-2.5-.3-.6-.5-.1-.5 1.3m152.9.6c0 1.1.3 1.4.6.6.3-.7.2-1.6-.1-1.9-.3-.4-.6.2-.5 1.3m-211 14c0 1.1.3 1.4.6.6.3-.7.2-1.6-.1-1.9-.3-.4-.6.2-.5 1.3m44.3 30.9c0 17.6.2 24.7.3 15.7.2-9 .2-23.4 0-32-.1-8.6-.3-1.3-.3 16.3m20.1-29.5c1 1.1 2 2 2.3 2s-.3-.9-1.3-2-2-2-2.3-2 .3.9 1.3 2m139.9.2-1.9 2.3 2.3-1.9c2.1-1.8 2.7-2.6 1.9-2.6-.2 0-1.2 1-2.3 2.2m-124.6 6.5c.7.3 1.6.2 1.9-.1.4-.3-.2-.6-1.3-.5-1.1 0-1.4.3-.6.6m109 0c.7.3 1.6.2 1.9-.1.4-.3-.2-.6-1.3-.5-1.1 0-1.4.3-.6.6m-408.9 5c-1.3 1.6-1.2 1.7.4.4.9-.7 1.7-1.5 1.7-1.7 0-.8-.8-.3-2.1 1.3m183.1-1.3c0 .2.8 1 1.8 1.7 1.5 1.3 1.6 1.2.3-.4s-2.1-2.1-2.1-1.3m-199.1 17.3c-1.3 1.6-1.2 1.7.4.4s2.1-2.1 1.3-2.1c-.2 0-1 .8-1.7 1.7m215.1-1.3c0 .2.8 1 1.8 1.7 1.5 1.3 1.6 1.2.3-.4s-2.1-2.1-2.1-1.3m-278 37c0 .2.8 1 1.8 1.7 1.5 1.3 1.6 1.2.3-.4s-2.1-2.1-2.1-1.3m340.9 1.3c-1.3 1.6-1.2 1.7.4.4.9-.7 1.7-1.5 1.7-1.7 0-.8-.8-.3-2.1 1.3m2.6 64.3c0 22.3.1 31.4.2 20.2.2-11.1.2-29.3 0-40.5-.1-11.1-.2-2-.2 20.3m-344.4 38.6c0 1.1.3 1.4.6.6.3-.7.2-1.6-.1-1.9-.3-.4-.6.2-.5 1.3m7.9 21.8c0 .2.8 1 1.8 1.7 1.5 1.3 1.6 1.2.3-.4s-2.1-2.1-2.1-1.3m326.9 1.3c-1.3 1.6-1.2 1.7.4.4s2.1-2.1 1.3-2.1c-.2 0-1 .8-1.7 1.7M268 697.4c0 .2.8 1 1.8 1.7 1.5 1.3 1.6 1.2.3-.4s-2.1-2.1-2.1-1.3m318.9 1.3c-1.3 1.6-1.2 1.7.4.4.9-.7 1.7-1.5 1.7-1.7 0-.8-.8-.3-2.1 1.3m-236.1 69c.7.3 1.6.2 1.9-.1.4-.3-.2-.6-1.3-.5-1.1 0-1.4.3-.6.6m154 0c.7.3 1.6.2 1.9-.1.4-.3-.2-.6-1.3-.5-1.1 0-1.4.3-.6.6"/><path fill-opacity=".6" d="M524.3 413.7c7.5.2 19.9.2 27.5 0 7.5-.1 1.3-.3-13.8-.3s-21.3.2-13.7.3"/><g stroke-width="0"><path d="M529.5 258.3c-5 2.3-9 6.3-11.3 11.4-1.2 2.6-15 38.3-30.7 79.3-24.5 63.9-28.5 75.2-28.5 79.8 0 19.4 23.9 28.6 37.4 14.3 1.8-1.8 5-8.2 8.1-16.3l5.3-13.3h56.4l5.3 13.3c7.2 18.2 12.3 23.2 24 23.2 12.1 0 21.5-9.3 21.5-21.3 0-4.6-4-15.8-29.4-82-16.2-42.2-30.2-78.1-31.3-79.9-1-1.8-3.8-4.6-6.1-6.3-3.6-2.4-5.4-3-11-3.2-4.1-.2-7.8.2-9.7 1m13.3 14.4c2.3 2 60.2 152.3 60.2 156.3 0 6.1-8.6 9.3-12.7 4.7-1.1-1.2-4.4-8.5-7.3-16.2s-6.2-15-7.3-16.3l-2-2.2h-35.4c-20.8 0-36.2.4-37.2 1-1.1.5-4.1 6.9-7.6 16.2-3.2 8.4-6.7 16.3-7.8 17.5-4.1 4.5-12.7 1.4-12.7-4.6 0-4.1 57.8-154.3 60.2-156.4 1.1-.9 3.3-1.7 4.8-1.7s3.7.8 4.8 1.7"/><path d="M533.6 315.2c-2.8 2.6-23.8 56.3-23.9 61 0 1.5.8 3.7 1.8 4.8 1.7 1.9 3 2 26.5 2 26.5 0 26.4 0 28.3-5.3.5-1.2-3.4-12.7-10.4-31-11.2-29.5-13.4-33.7-17.9-33.7-1 0-3 1-4.4 2.2m9.6 38c2.6 6.8 5 13.1 5.4 14 .6 1.7-.3 1.8-10.6 1.8s-11.2-.1-10.6-1.8c5.2-13.7 10.2-26.2 10.6-26.2.3 0 2.6 5.5 5.2 12.2M683 318.1c-8.4 3.5-14 12.3-14 22v5.7l-18.7.4c-15.7.3-19.4.7-22.3 2.2-8.5 4.4-13 11.4-13 20.1 0 11.4 7.8 19.9 20.2 22 3.6.6 3.6.6 5.3 8.3 3.6 16.2 10.7 34.3 18.7 47.6l2.3 3.8-3.5 2.9c-4.1 3.5-18.1 10.8-26.3 13.9-11 4.1-16.7 11.5-16.7 21.5 0 12.2 9.3 21.5 21.4 21.5 9.4 0 32.9-10.7 47.4-21.5l7.2-5.4 7.3 5.4c14.4 10.8 37.9 21.5 47.3 21.5 19.5 0 28.9-23.8 14.6-37.3-1.6-1.5-6.9-4.4-11.8-6.5-11-4.6-20.1-9.5-24.5-13.2l-3.4-2.8 2.3-3.8c8-13.3 15.1-31.4 18.7-47.6 1.7-7.7 1.7-7.7 5.3-8.3 12.4-2.1 20.2-10.6 20.2-22 0-8.7-4.5-15.7-13-20.1-2.9-1.5-6.6-1.9-22.2-2.2l-18.8-.4v-5.7c0-7.7-3.9-15.5-9.8-19.6-3.5-2.4-5.4-3-11-3.2-3.7-.2-7.8.2-9.2.8m13.1 14.8c2.2 1.8 2.4 2.8 2.7 13 .5 15.8-.7 15.1 27.5 15.1 21.3 0 22.2.1 24.4 2.2 3 2.8 3 7.4.1 10.5-1.8 2-3.1 2.3-8.8 2.3-8.9 0-11.5 1.9-12.5 9.2-2.6 19.7-10.4 40.8-21.5 57.9-5.2 8.1-5.2 10.6.3 15.6 8.4 7.7 23.1 16.4 35.2 20.8 2.8 1 6 2.7 7.3 3.8 4.6 4.2 1.2 12.7-5.1 12.7-7.3 0-31.6-12.6-45.1-23.4-4.5-3.6-7.9-5.6-9.6-5.6s-5.1 2-9.6 5.6c-13 10.4-37.9 23.4-45 23.4-3.9 0-7.4-3.6-7.4-7.5s2.8-6.5 9.5-9c12.1-4.4 26.8-13.1 35.2-20.8 5.5-5 5.5-7.5.3-15.6-9.9-15.2-17.6-34.8-20.6-52.1-.9-5.2-2-10.3-2.5-11.2-1.5-2.8-4.4-3.8-11-3.8-5.1 0-6.7-.4-8.6-2.2-3-2.8-3-7.4-.1-10.5 2.1-2.3 2.4-2.3 24.3-2.3 28.5 0 27.2.7 27.7-15.1.3-10.2.5-11.2 2.7-13 1.3-1 3.6-1.9 5.1-1.9s3.8.9 5.1 1.9"/><path d="M670.3 378.6c-2.3 2.3-2.5 3.1-1.9 7.7 1.4 12.2 7 28.6 14 41 3.9 7 6.2 8.5 11.1 7.3 4.6-1.2 13.8-20.5 18.1-38.1 3-12.6 3-15-.1-18-2.4-2.5-2.6-2.5-20.5-2.5h-18.1zm27.2 16c-.9 5-5.6 17.4-6.5 17.4s-5.6-12.4-6.5-17.4l-.7-3.6h14.4zM275 482c-7 1.2-12.8 5.8-16.6 13-1.7 3.2-1.9 6.2-1.9 37.3v33.9l2.8 2.4c3.6 3.1 6.1 3 9.2-.1l2.5-2.4v-65.8l2.3-2.1c3.1-2.9 7.7-2.9 10.5.1l2.2 2.3v191.5l-2.8-1.5c-4.1-2.1-8.2-6.6-10.3-11.1-1.7-3.7-1.9-7.4-1.9-45.2 0-43.7-.2-45.8-4.7-46.9-4.2-1.1-7.3.4-9 4.3-1.2 3.1-1.4 9.6-1.1 44.7.4 39.2.5 41.4 2.5 46.4 4.2 10.4 13.4 19.4 23.1 22.6l4.7 1.6 1.8 8c5.5 24.5 24.2 43.5 49.7 50.7 6.1 1.7 12.3 1.8 90.5 1.8h84l8-2.3c24.5-7.1 42.8-26.1 48.2-50.2l1.8-8 4.7-1.6c9.7-3.2 19.1-12.4 22.9-22.4 1.8-4.7 1.9-8 1.9-48.9 0-41.7-.1-43.9-1.9-45.5-2.5-2.2-7.8-2.4-9.9-.2-1.5 1.5-1.8 6.1-2.2 45.4-.4 38.2-.7 44.1-2.2 46.7-2.1 3.9-6.5 8.3-10 10.1l-2.8 1.5V500.3l2.3-2.1c3.1-2.9 7.7-2.9 10.5.1 2.2 2.3 2.2 2.8 2.2 35.1v32.7l2.5 2.4c3 3 5.4 3.1 8.9.4l2.6-2v-34.5c0-29.8-.2-34.9-1.6-37.7-8.7-17.3-30.8-17.2-40 .3-1.7 3.1-1.9 6.6-2.2 34.4l-.4 30.8-4.9-8.2c-12.7-21-29.1-37.7-49.5-50-44.4-27-101.4-27-145.8 0-20.6 12.5-38.6 30.9-50.2 51.3l-3.9 6.8-.5-30.8c-.5-27.4-.7-31.2-2.4-34.3-5-9.6-14.2-14.6-23.6-13m173.7 15.5c47.8 7.8 87 41.8 101.7 88.3 5.1 16.3 5.6 22.7 5.6 74.2 0 39.5-.3 48.6-1.5 53.5-4.7 18.1-19.9 33.3-38 38-8.9 2.3-167.1 2.3-176 0-18.2-4.8-33.2-19.8-38-38-2.2-8.7-2.2-96.6 0-110.5 7.6-46.4 40.9-85.5 85.6-100.4 5.8-2 14.4-4.2 19-5 11.3-1.9 30.3-1.9 41.6-.1"/><path d="M344 587.6c-11.2 3-20.9 11.6-25.2 22.2-2.3 5.7-2.3 6-2.3 52.2v46.5l2.4 6c3.3 8.2 12.4 17.3 20.6 20.6l6 2.4h166l6-2.4c8.2-3.3 17.3-12.4 20.6-20.6l2.4-6v-93l-2.4-6c-3.3-8.2-12.4-17.3-20.6-20.6l-6-2.4-81-.2c-69-.2-81.8 0-86.5 1.3m170.6 16.9c3 1.9 6 4.9 7.9 7.9l3 4.9v89.4l-3 4.9c-1.9 3-4.9 6-7.9 7.9l-4.9 3h-81.1c-77.3 0-81.3-.1-84.6-1.9-4.9-2.6-7.9-5.5-10.3-10.1-2.1-3.9-2.2-5.2-2.5-46.2-.2-27 .1-43.7.8-46.1 1.2-4.7 4.6-9.8 8.1-12.4 6.5-4.8 5.2-4.8 90-4.5l79.6.2z"/><path d="M359.5 617.9c-14.8 6.8-18 25.7-6.4 36.8 14.3 13.5 37.9 3.4 37.9-16.2 0-16-17.2-27.2-31.5-20.6m14.2 15.3c4.7 4.4 1.4 12.8-5.1 12.8-4 0-7.6-3.5-7.6-7.4 0-6.6 7.8-10 12.7-5.4m105.8-15.3c-14.8 6.8-18 25.7-6.4 36.8 11.1 10.5 28.6 7.5 35.4-6 6.1-12.4.4-26.7-12.8-31.6-4.3-1.7-11.7-1.3-16.2.8m14.2 15.3c4.7 4.4 1.4 12.8-5.1 12.8-4 0-7.6-3.5-7.6-7.4 0-6.6 7.8-10 12.7-5.4m-100.5 32.1c-6.1 6.5 1.2 26.7 12.7 35.1 2.5 1.9 7.4 4.4 10.8 5.5 20 6.7 41.9-4.7 47.7-24.8 2.4-8.1 2.1-12.7-.9-15.6l-2.4-2.5h-65.8zm55.4 15.5c-8.3 16-31.9 16-40.2 0l-1.5-2.8h43.2z"/></g><path fill-opacity=".3" d="M532.8 368.7c2.8.2 7.6.2 10.5 0 2.8-.2.5-.3-5.3-.3s-8.1.1-5.2.3"/><path fill-opacity=".5" d="M668.3 342c0 2.5.2 3.5.4 2.2.2-1.2.2-3.2 0-4.5-.2-1.2-.4-.2-.4 2.3"/><path fill="#404040" d="M415.8 496.7c.7.3 1.6.2 1.9-.1.4-.3-.2-.6-1.3-.5-1.1 0-1.4.3-.6.6m24 0c.7.3 1.6.2 1.9-.1.4-.3-.2-.6-1.3-.5-1.1 0-1.4.3-.6.6m-93.2 105.8c-7.5 2.7-12.6 8.1-14.6 15.7-.7 2.4-1 19.1-.8 46.1.3 41 .4 42.3 2.5 46.2 2.4 4.6 5.4 7.5 10.3 10.1 3.3 1.8 7.6 1.9 81.9 2.2 88.4.3 85.8.5 93.1-6.8 6.7-6.7 7-8.8 7-54s-.3-47.3-7-54c-7.2-7.2-4.8-7-91.4-7-63.6.1-77.8.3-81 1.5m30.2 15.1c15.2 6.3 18.9 25.9 7.1 37.1-11.4 10.7-29.3 7.2-36-7.2-8.2-17.7 10.9-37.5 28.9-29.9m119.7-.2c9.4 4 14.5 11.4 14.5 21.1 0 12.6-10 22.5-22.6 22.5-11.9 0-22.3-10.3-22.4-22.3 0-15.6 16.5-27.1 30.5-21.3m-32.8 47.8c6.4 6-1 26.7-12.6 35.2-7.7 5.7-12.4 7.1-23.1 7-8.4 0-10.2-.4-15.4-2.9-11.9-5.8-20.1-17.4-21.3-30.1-.5-5.8-.4-6.7 1.7-8.9l2.3-2.5h33.1c32.5 0 33 0 35.3 2.2m-162.6-53.6c0 1.1.3 1.4.6.6.3-.7.2-1.6-.1-1.9-.3-.4-.6.2-.5 1.3m254.1.4c0 1.4.2 1.9.5 1.2.2-.6.2-1.8 0-2.5-.3-.6-.5-.1-.5 1.3"/><path fill="#8080BF" d="M535.2 272c-1.3.6-3.1 2.8-4.2 5.2-1 2.4-14.5 37.3-30 77.7-25.5 66.5-28 73.7-27 76.2 1.5 3.6 5.8 5.4 9.2 3.8 3-1.3 3.3-1.9 9.9-19.4 3.2-8.3 5.9-13.8 7.5-15.3 2.5-2.2 2.6-2.2 37.4-2.2s34.9 0 37.4 2.2c1.6 1.5 4.3 7 7.5 15.3 6.7 17.6 7 18.2 10.1 19.5 3.5 1.5 7.5-.3 9-4 1-2.4-1.7-10.1-27-76.1-15.5-40.4-29-75.3-30-77.7-1.2-2.6-2.9-4.6-4.5-5.2-1.5-.6-2.7-1-2.8-.9-.1 0-1.2.4-2.5.9m8.1 42.8c2.1 2.3 23.7 58.6 23.7 61.8 0 1.4-1.1 3.6-2.5 4.9l-2.4 2.5h-48.2l-2.4-2.5c-1.4-1.3-2.5-3.5-2.5-4.9 0-3.2 21.6-59.5 23.7-61.8 1-1.1 3.1-1.8 5.3-1.8s4.3.7 5.3 1.8m32.1 182.4c-1.2.5-2.7 2.1-3.3 3.4-1.3 3-1.6 190.4-.3 190.4 2.5 0 9.2-6.4 11.3-10.7 2.4-4.8 2.4-4.8 2.7-47.3.3-41.7.3-42.5 2.4-44.7 1.2-1.3 2.7-2.3 3.5-2.3.9 0 1.3-1.9 1.3-7 0-6.6-.2-7.1-2.4-8-1.4-.5-3-1.8-3.5-2.9-.7-1.3-1.1-13.2-1.1-33.5 0-33.3-.3-35.5-4.7-37.5-2.8-1.3-3.1-1.3-5.9.1m-20.3 122.4c0 1.1.3 1.4.6.6.3-.7.2-1.6-.1-1.9-.3-.4-.6.2-.5 1.3m-283.8 49.3c.5 6.4 1.3 9.4 3.2 12.7 2.3 3.9 8.6 9.4 10.7 9.4.5 0 .8-4.7.8-10.5v-10.4l-4.7-2.1c-2.7-1.2-6.1-3.3-7.7-4.8l-2.9-2.7z"/><path fill="#404080" d="M520.8 398.7c9.4.2 25 .2 34.5 0 9.4-.1 1.7-.3-17.3-.3s-26.7.2-17.2.3"/><path fill="#000040" d="M526.8 383.7c6.1.2 16.3.2 22.5 0 6.1-.1 1.1-.3-11.3-.3s-17.4.2-11.2.3"/><path fill="gray" d="M419.8 496.7c.7.3 1.6.2 1.9-.1.4-.3-.2-.6-1.3-.5-1.1 0-1.4.3-.6.6m16 0c.7.3 1.6.2 1.9-.1.4-.3-.2-.6-1.3-.5-1.1 0-1.4.3-.6.6m-98.4 37.5-2.9 3.3 3.3-2.9c1.7-1.7 3.2-3.1 3.2-3.3 0-.8-.8-.1-3.6 2.9m179.6-1.8c0 .2.8 1 1.8 1.7 1.5 1.3 1.6 1.2.3-.4s-2.1-2.1-2.1-1.3m-215.9 83.2c0 1.1.3 1.4.6.6.3-.7.2-1.6-.1-1.9-.3-.4-.6.2-.5 1.3m254 1c0 1.1.3 1.4.6.6.3-.7.2-1.6-.1-1.9-.3-.4-.6.2-.5 1.3m0 88c0 1.1.3 1.4.6.6.3-.7.2-1.6-.1-1.9-.3-.4-.6.2-.5 1.3m-254 1c0 1.1.3 1.4.6.6.3-.7.2-1.6-.1-1.9-.3-.4-.6.2-.5 1.3m13.9 30.8c0 .2.8 1 1.8 1.7 1.5 1.3 1.6 1.2.3-.4s-2.1-2.1-2.1-1.3m32.8 16.3c.7.3 1.6.2 1.9-.1.4-.3-.2-.6-1.3-.5-1.1 0-1.4.3-.6.6m159 0c.7.3 1.6.2 1.9-.1.4-.3-.2-.6-1.3-.5-1.1 0-1.4.3-.6.6"/><path fill="#BF4040" d="M686.7 333c-2.4 1.9-2.5 2.6-2.9 13-.2 8.9-.6 11.3-2.1 12.7-1.6 1.6-4.5 1.9-25.2 2.3-26.2.6-26.9.7-26.9 7.5 0 5.1 2.2 6.8 9.6 7.2 12 .7 12.3 1 14.5 13.8 3.1 18.5 9.8 35.8 20.4 53 4.4 7.3 5 8.8 4.2 11.2-2 5.9-20.2 18.2-37.6 25.3-6.9 2.9-9.5 4.5-10.5 6.4-1.8 3.5-.4 7.7 3.2 9.4 2.3 1.1 3.4 1.1 7.9-.4 12.7-4.2 29.8-13.9 43.5-24.9 2.4-1.9 5.2-3.5 6.2-3.5s3.8 1.6 6.2 3.5c13.7 11 30.8 20.7 43.5 24.9 4.5 1.5 5.6 1.5 7.9.4 3.6-1.7 5-5.9 3.2-9.4-1-1.9-3.6-3.5-10.5-6.4-11.8-4.8-22.1-10.7-30.3-17.3-9.3-7.6-9.5-8.7-3.1-19.1 10.6-17.3 16.7-33.2 20.1-52 1.1-6.1 2.7-11.7 3.5-12.6 1-.9 4.4-1.7 9.6-2.1 9.2-.6 11.3-2 11.3-7.4 0-6.8-.7-6.9-26.9-7.5-20.7-.4-23.6-.7-25.2-2.3-1.5-1.4-1.9-3.8-2.1-12.7-.4-10.4-.5-11.1-2.9-13-1.4-1.1-3.3-2-4.3-2s-2.9.9-4.3 2m23.8 43.6c.8.4 2.2 1.9 3.1 3.5 1.3 2.5 1.2 3.7-.2 10.6-2.2 11.1-6.8 24.4-11.5 33.4s-6.8 11.2-10.9 11.2-6.2-2.2-10.9-11.2-9.3-22.3-11.5-33.4c-1.5-6.9-1.5-8.1-.1-10.6.8-1.6 2-3.1 2.7-3.4 1.9-.8 37.3-.8 39.3-.1"/><path fill="#400000" d="M683.3 345c0 4.7.2 6.6.4 4.2.2-2.3.2-6.1 0-8.5-.2-2.3-.4-.4-.4 4.3m15.1.5c0 4.9.1 7.1.3 4.8s.2-6.4 0-9-.3-.8-.3 4.2m-23.5 112.2c-1.3 1.6-1.2 1.7.4.4.9-.7 1.7-1.5 1.7-1.7 0-.8-.8-.3-2.1 1.3m30.1-1.3c0 .2.8 1 1.8 1.7 1.5 1.3 1.6 1.2.3-.4s-2.1-2.1-2.1-1.3"/><path fill="#804040" d="M667.1 383.6c0 1.1.3 1.4.6.6.3-.7.2-1.6-.1-1.9-.3-.4-.6.2-.5 1.3m47 0c0 1.1.3 1.4.6.6.3-.7.2-1.6-.1-1.9-.3-.4-.6.2-.5 1.3"/><g fill="#BFBFBF" stroke-width="0"><path d="M275.9 497.4c-4.6 2.3-4.9 4.1-4.9 38.2 0 34.6.1 33.8-5.2 35.7-1.5.5-1.8 1.9-1.8 7.7 0 5.1.4 7 1.3 7 .8 0 2.3 1 3.5 2.3 2.2 2.3 2.2 2.8 2.2 37.4v35.1l3.9 3.1c3.6 2.9 8.1 5.1 10.2 5.1.6 0 .8-31.3.7-83.9-.3-79.4-.4-84-2.1-85.9q-3.6-3.9-7.8-1.8m138.6-.3c-56.1 6.6-100.7 48.4-111.3 104.4-1.5 7.7-1.7 16-1.7 58 0 47.8.1 49.2 2.2 56 5.3 16.7 18 29.5 34.8 34.8 7 2.2 7.2 2.2 90.5 2.2h83.5l7.1-2.6c16.6-6.1 27.5-17 33.6-33.9 2.3-6.5 2.3-6.7 2.3-55.5 0-54-.4-58.5-6.6-76.9-14.6-43.8-53.2-77.4-97.6-85.1-11.1-1.9-27.1-2.6-36.8-1.4m104.5 92c7.7 3.7 14.1 9.7 18.1 17.1l3.4 6.3v99l-3.4 6.3c-4.1 7.5-10.3 13.5-17.9 17l-5.7 2.7h-170l-5.7-2.7c-7.4-3.4-15.2-11.2-18.6-18.6l-2.7-5.7V662c0-48.3 0-48.5 2.3-53.4 4.5-9.9 12.5-17.3 22.5-20.7 4.9-1.7 10.4-1.8 88.7-1.6l83.5.2z"/><path d="M367.8 631.7c.7.3 1.6.2 1.9-.1.4-.3-.2-.6-1.3-.5-1.1 0-1.4.3-.6.6m120 0c.7.3 1.6.2 1.9-.1.4-.3-.2-.6-1.3-.5-1.1 0-1.4.3-.6.6m-124.9 2c-1.3 1.6-1.2 1.7.4.4s2.1-2.1 1.3-2.1c-.2 0-1 .8-1.7 1.7m9.1-1.3c0 .2.8 1 1.8 1.7 1.5 1.3 1.6 1.2.3-.4s-2.1-2.1-2.1-1.3m110.9 1.3c-1.3 1.6-1.2 1.7.4.4s2.1-2.1 1.3-2.1c-.2 0-1 .8-1.7 1.7m9.1-1.3c0 .2.8 1 1.8 1.7 1.5 1.3 1.6 1.2.3-.4s-2.1-2.1-2.1-1.3m-130.9 6.2c0 1.1.3 1.4.6.6.3-.7.2-1.6-.1-1.9-.3-.4-.6.2-.5 1.3m14 0c0 1.1.3 1.4.6.6.3-.7.2-1.6-.1-1.9-.3-.4-.6.2-.5 1.3m106 0c0 1.1.3 1.4.6.6.3-.7.2-1.6-.1-1.9-.3-.4-.6.2-.5 1.3m14 0c0 1.1.3 1.4.6.6.3-.7.2-1.6-.1-1.9-.3-.4-.6.2-.5 1.3M362 642.4c0 .2.8 1 1.8 1.7 1.5 1.3 1.6 1.2.3-.4s-2.1-2.1-2.1-1.3m10.9 1.3c-1.3 1.6-1.2 1.7.4.4s2.1-2.1 1.3-2.1c-.2 0-1 .8-1.7 1.7m109.1-1.3c0 .2.8 1 1.8 1.7 1.5 1.3 1.6 1.2.3-.4s-2.1-2.1-2.1-1.3m10.9 1.3c-1.3 1.6-1.2 1.7.4.4s2.1-2.1 1.3-2.1c-.2 0-1 .8-1.7 1.7m-125.1 2c.7.3 1.6.2 1.9-.1.4-.3-.2-.6-1.3-.5-1.1 0-1.4.3-.6.6m120 0c.7.3 1.6.2 1.9-.1.4-.3-.2-.6-1.3-.5-1.1 0-1.4.3-.6.6"/></g><path fill="#BFBFBF" fill-opacity=".5" d="M263.3 579c0 4.1.2 5.8.4 3.7.2-2 .2-5.4 0-7.5-.2-2-.4-.3-.4 3.8"/><path fill="#8080BF" fill-opacity=".4" d="M593.3 579c0 4.1.2 5.8.4 3.7.2-2 .2-5.4 0-7.5-.2-2-.4-.3-.4 3.8"/><path fill="#FFF" d="M363.7 633.8c-2.2 2.5-2.1 7.5.1 9.5 2.5 2.2 7.5 2.1 9.5-.1 2.2-2.5 2.1-7.5-.1-9.5-2.5-2.2-7.5-2.1-9.5.1m120 0c-2.2 2.5-2.1 7.5.1 9.5 2.5 2.2 7.5 2.1 9.5-.1 2.2-2.5 2.1-7.5-.1-9.5-2.5-2.2-7.5-2.1-9.5.1"/><path fill="#40BF40" d="M408 678.8c0 2.3 6.4 9.4 10.2 11.3 5.9 3 14.7 3 20.6 0 3.8-1.9 10.2-9 10.2-11.3 0-.4-9.2-.8-20.5-.8s-20.5.4-20.5.8"/></svg>